# xmcd CD database file
#
# Track frame offsets:
#	150
#	13037
#	26837
#	45812
#	59987
#	80537
#	87962
#	105287
#	125912
#	146312
#	164612
#	178487
#	191087
#	204512
#	220637
#	238562
#	252962
#	270662
#
# Disc length: 3758 seconds
#
# Revision: 0
# Processed by: cddbd v1.5.2PL0 Copyright (c) Steve Scherf et al.
# Submitted via: CDex 1.60beta1-cs1
#
DISCID=040eac12
DTITLE=Various Artist - Swingin' Round Switzerland
DYEAR=1995
DGENRE=Jazz
TTITLE0=Engadiner Landlerfrunda - Heidiland
TTITLE1=The Swing Makers And Hazy Osterwald - 's Wonderful
TTITLE2=Pepe Lienhard - Bird Call
TTITLE3=Che and Ray - Telephone-Boogie
TTITLE4=Nicolas Hafner Swisstet - Tout Simplement
TTITLE5=Valerie Lou - Manque De Pot
TTITLE6=Swiss Dixie Stompers - Watch Time Rag
TTITLE7=Raymond Court - Night Mist Blues
TTITLE8=Isla Eckinger Hot Mallets - Quotation
TTITLE9=Buddha's Gamblers - Chez Max Boogie
TTITLE10=Willy Schmid Quartett - I Want To Be Happy
TTITLE11=Eric Hauser Sextett - Basle Town Mambo
TTITLE12=True Blue - Relativity
TTITLE13=Hot Strings - Swing From Berne With Love
TTITLE14=Danilo Moccia And The Dixie Jazz Band - Struttin' With Some Barbeque
TTITLE15=Peter Jacques/DRS Big Band - You've Got It
TTITLE16=Gody Klay Trio - Something For Steven
TTITLE17=Hans Kennel - Muotathaler
EXTD=YEAR: 1995
EXTT0=
EXTT1=
EXTT2=
EXTT3=
EXTT4=
EXTT5=
EXTT6=
EXTT7=
EXTT8=
EXTT9=
EXTT10=
EXTT11=
EXTT12=
EXTT13=
EXTT14=
EXTT15=
EXTT16=
EXTT17=
PLAYORDER=
